<svg xmlns="http://www.w3.org/2000/svg" viewBox="0 0 256 256">
<path fill="#f5f7fa" stroke="#2563eb" stroke-width="9" d="M48 18h108l52 52v139c0 16-10 29-26 29H48c-16 0-26-13-26-29V47c0-16 10-29 26-29z"/>
<path fill="#3b82f6" d="M156 18v43c0 8 5 13 13 13h39z"/>
<rect x="55" y="82" width="146" height="88" rx="10" fill="#60a5fa"/>
<circle cx="89" cy="108" r="14" fill="#facc15"/>
<path fill="#22c55e" d="M55 157l38-36 24 21 25-28 59 49H55z"/>
<rect x="35" y="151" width="186" height="69" rx="16" fill="#2563eb"/>
<text x="128" y="201" text-anchor="middle" font-family="Arial,sans-serif" font-size="47" font-weight="700" fill="#fff">JPG</text>
</svg>