<svg xmlns="http://www.w3.org/2000/svg" width="512" height="512" viewBox="0 0 512 512">
  <defs>
    <linearGradient id="green" x1="0" y1="0" x2="1" y2="1">
      <stop offset="0%" stop-color="#217346"/>
      <stop offset="100%" stop-color="#185C37"/>
    </linearGradient>
  </defs>

  <!-- Excel-style document -->
  <rect x="126" y="42" width="300" height="428" rx="28" fill="#fff"/>
  <path d="M126 70a28 28 0 0 1 28-28h244a28 28 0 0 1 28 28v372a28 28 0 0 1-28 28H154a28 28 0 0 1-28-28z" fill="#fff" stroke="#217346" stroke-width="10"/>

  <!-- Green header -->
  <path d="M126 70a28 28 0 0 1 28-28h244a28 28 0 0 1 28 28v92H126z" fill="url(#green)"/>

  <!-- Spreadsheet grid -->
  <g stroke="#B7D8C4" stroke-width="5">
    <path d="M154 198h244M154 258h244M154 318h244M154 378h244"/>
    <path d="M214 180v218M274 180v218M334 180v218"/>
  </g>

  <!-- XLSM label -->
  <rect x="34" y="166" width="190" height="180" rx="26" fill="url(#green)"/>
  <text x="129" y="255" text-anchor="middle" dominant-baseline="middle"
        font-family="Arial, Helvetica, sans-serif" font-size="58" font-weight="800"
        fill="#fff">XLSM</text>

  <!-- Macro/gear accent -->
  <circle cx="385" cy="115" r="22" fill="#fff"/>
  <path d="M385 101v28M371 115h28" stroke="#217346" stroke-width="7" stroke-linecap="round"/>
</svg>